<svg version="1.1" xmlns="http://www.w3.org/2000/svg" xmlns:xlink="http://www.w3.org/1999/xlink" width="24px" height="24px" viewBox="0,0,256,256"><g fill="#ffffff" fill-rule="nonzero" stroke="none" stroke-width="1" stroke-linecap="butt" stroke-linejoin="miter" stroke-miterlimit="10" stroke-dasharray="" stroke-dashoffset="0" font-family="none" font-weight="none" font-size="none" text-anchor="none" style="mix-blend-mode: normal"><g transform="translate(0,0.03093) scale(10.66667,10.66667)"><path d="M5,18h4.24c0.2658,0.0015 0.52128,-0.1028 0.71,-0.29l6.92,-6.93v0l2.84,-2.78c0.3921,-0.38892 0.3947,-1.02208 0.0058,-1.4142c-0.0019,-0.00194 -0.0039,-0.00388 -0.0058,-0.0058l-4.24,-4.29c-0.3889,-0.39212 -1.0221,-0.39472 -1.4142,-0.0058c-0.0019,0.00193 -0.0039,0.00386 -0.0058,0.0058l-2.82,2.83v0l-6.94,6.93c-0.18719,0.1887 -0.29154,0.4442 -0.29,0.71v4.24c0,0.5523 0.44772,1 1,1zM14.76,4.41l2.83,2.83l-1.42,1.42l-2.83,-2.83zM6,13.17l5.93,-5.93l2.83,2.83l-5.93,5.93h-2.83zM21,20h-18c-0.55228,0 -1,0.4477 -1,1c0,0.5523 0.44772,1 1,1h18c0.5523,0 1,-0.4477 1,-1c0,-0.5523 -0.4477,-1 -1,-1z"></path></g></g></svg>