<svg viewBox="0 0 24 24" xmlns="http://www.w3.org/2000/svg" xmlns:xlink="http://www.w3.org/1999/xlink" overflow="hidden"><path d="M5 18 9.24 18C9.5058 18.0015 9.76128 17.8972 9.95 17.71L16.87 10.78 16.87 10.78 19.71 8C20.1021 7.61108 20.1047 6.97792 19.7158 6.5858 19.7139 6.58386 19.7119 6.58192 19.71 6.58L15.47 2.29C15.0811 1.89788 14.4479 1.89528 14.0558 2.2842 14.0539 2.28613 14.0519 2.28806 14.05 2.29L11.23 5.12 11.23 5.12 4.29 12.05C4.10281 12.2387 3.99846 12.4942 4 12.76L4 17C4 17.5523 4.44772 18 5 18ZM14.76 4.41 17.59 7.24 16.17 8.66 13.34 5.83ZM6 13.17 11.93 7.24 14.76 10.07 8.83 16 6 16ZM21 20 3 20C2.44772 20 2 20.4477 2 21 2 21.5523 2.44772 22 3 22L21 22C21.5523 22 22 21.5523 22 21 22 20.4477 21.5523 20 21 20Z" fill="#2FB3FF"/></svg>