<svg viewBox="0 0 24 24" xmlns="http://www.w3.org/2000/svg" xmlns:xlink="http://www.w3.org/1999/xlink" overflow="hidden"><path d="M15.29 8.85 10.56 13.59 8.71 11.73C8.31788 11.3379 7.68212 11.3379 7.29 11.73 6.89788 12.1221 6.89788 12.7579 7.29 13.15L9.85 15.71C10.2389 16.1021 10.8721 16.1047 11.2642 15.7158 11.2661 15.7139 11.2681 15.7119 11.27 15.71L16.71 10.27C17.1021 9.87788 17.1021 9.24212 16.71 8.85 16.3179 8.45788 15.6821 8.45788 15.29 8.85ZM12 2C6.47715 2 2 6.47715 2 12 1.99126 14.3091 2.79079 16.5485 4.26 18.33L2.26 20.33C1.97626 20.6176 1.8934 21.0476 2.05 21.42 2.21987 21.788 2.59506 22.017 3 22L12 22C17.5228 22 22 17.5228 22 12 22 6.47715 17.5228 2 12 2ZM12 20 5.41 20 6.34 19.07C6.72772 18.68 6.72772 18.05 6.34 17.66 3.21407 14.5375 3.21125 9.47222 6.33371 6.34629 9.45617 3.22036 14.5215 3.21755 17.6474 6.34 20.7733 9.46246 20.7762 14.5278 17.6537 17.6537 16.1547 19.1544 14.1211 19.9983 12 20Z" fill="#2FB3FF"/></svg>